<svg width="213" height="70" viewBox="0 0 213 70" fill="none" xmlns="http://www.w3.org/2000/svg">
<rect x="1.5" y="1.5" width="210" height="66.8694" stroke="white" stroke-width="3"/>
<path d="M20.53 54.59C17.97 54.59 15.78 54.24 13.96 53.54C12.14 52.82 10.75 51.78 9.79 50.42C8.83 49.06 8.35 47.41 8.35 45.47C8.35 43.53 8.83 41.88 9.79 40.52C10.75 39.16 12.14 38.12 13.96 37.4C15.78 36.68 17.97 36.32 20.53 36.32C20.57 36.32 20.64 36.32 20.74 36.32C20.86 36.32 20.97 36.32 21.07 36.32C21.19 36.32 21.26 36.32 21.28 36.32C23.84 36.32 26.02 36.68 27.82 37.4C29.64 38.12 31.03 39.16 31.99 40.52C32.95 41.88 33.43 43.53 33.43 45.47C33.43 47.39 32.95 49.04 31.99 50.42C31.05 51.78 29.68 52.82 27.88 53.54C26.1 54.24 23.94 54.59 21.4 54.59C21.36 54.59 21.27 54.59 21.13 54.59C21.01 54.59 20.89 54.59 20.77 54.59C20.65 54.59 20.57 54.59 20.53 54.59ZM20.86 52.25C20.9 52.25 20.95 52.25 21.01 52.25C21.07 52.25 21.1 52.25 21.1 52.25C23.14 52.23 24.86 51.97 26.26 51.47C27.66 50.95 28.72 50.19 29.44 49.19C30.18 48.17 30.55 46.92 30.55 45.44C30.55 43.98 30.18 42.75 29.44 41.75C28.7 40.75 27.63 39.99 26.23 39.47C24.85 38.95 23.16 38.69 21.16 38.69C21.14 38.69 21.09 38.69 21.01 38.69C20.95 38.69 20.9 38.69 20.86 38.69C18.8 38.69 17.05 38.95 15.61 39.47C14.19 39.97 13.11 40.72 12.37 41.72C11.63 42.72 11.26 43.97 11.26 45.47C11.26 46.97 11.64 48.22 12.4 49.22C13.16 50.22 14.25 50.98 15.67 51.5C17.11 52 18.84 52.25 20.86 52.25ZM19.51 56.78V34.22H22.3V56.78H19.51ZM38.0434 56V35H46.2334C48.0734 35 49.6434 35.29 50.9434 35.87C52.2434 36.45 53.2434 37.29 53.9434 38.39C54.6434 39.49 54.9934 40.8 54.9934 42.32C54.9934 43.84 54.6434 45.15 53.9434 46.25C53.2434 47.33 52.2434 48.17 50.9434 48.77C49.6434 49.35 48.0734 49.64 46.2334 49.64H39.6934L41.0434 48.23V56H38.0434ZM41.0434 48.53L39.6934 47.03H46.1434C48.0634 47.03 49.5134 46.62 50.4934 45.8C51.4934 44.98 51.9934 43.82 51.9934 42.32C51.9934 40.82 51.4934 39.66 50.4934 38.84C49.5134 38.02 48.0634 37.61 46.1434 37.61H39.6934L41.0434 36.11V48.53ZM62.0221 46.55V44.09H73.2721V46.55H62.0221ZM64.7221 34.76C66.2421 34.76 67.6421 35.03 68.9221 35.57C70.2021 36.09 71.3121 36.84 72.2521 37.82C73.2121 38.78 73.9521 39.91 74.4721 41.21C75.0121 42.51 75.2821 43.94 75.2821 45.5C75.2821 47.06 75.0121 48.49 74.4721 49.79C73.9521 51.09 73.2121 52.23 72.2521 53.21C71.3121 54.17 70.2021 54.92 68.9221 55.46C67.6421 55.98 66.2421 56.24 64.7221 56.24C63.0421 56.24 61.4921 55.96 60.0721 55.4C58.6721 54.84 57.4921 54.02 56.5321 52.94L58.4221 51.05C59.2621 51.91 60.1921 52.54 61.2121 52.94C62.2521 53.34 63.3721 53.54 64.5721 53.54C65.6721 53.54 66.6921 53.34 67.6321 52.94C68.5721 52.54 69.3821 51.99 70.0621 51.29C70.7621 50.57 71.3021 49.72 71.6821 48.74C72.0621 47.74 72.2521 46.66 72.2521 45.5C72.2521 44.34 72.0621 43.27 71.6821 42.29C71.3021 41.29 70.7621 40.44 70.0621 39.74C69.3821 39.02 68.5721 38.46 67.6321 38.06C66.6921 37.66 65.6721 37.46 64.5721 37.46C63.3721 37.46 62.2521 37.66 61.2121 38.06C60.1921 38.46 59.2621 39.09 58.4221 39.95L56.5321 38.06C57.4921 36.98 58.6721 36.16 60.0721 35.6C61.4921 35.04 63.0421 34.76 64.7221 34.76ZM80.143 56V35H83.113V51.2L95.533 35H98.293V56H95.353V39.83L82.903 56H80.143ZM89.173 33.53C87.533 33.53 86.263 33.17 85.363 32.45C84.483 31.73 84.033 30.72 84.013 29.42H86.143C86.163 30.2 86.443 30.81 86.983 31.25C87.523 31.67 88.253 31.88 89.173 31.88C90.073 31.88 90.793 31.67 91.333 31.25C91.893 30.81 92.183 30.2 92.203 29.42H94.303C94.283 30.72 93.823 31.73 92.923 32.45C92.043 33.17 90.793 33.53 89.173 33.53ZM104.84 56V35H107.3L116.72 50.87H115.4L124.7 35H127.16L127.19 56H124.31L124.28 39.53H124.97L116.69 53.45H115.31L106.97 39.53H107.72V56H104.84Z" fill="white"/>
<path d="M167.958 67.156V2.71338M135.844 34.9585H200.287M190.853 12.1759L145.285 57.7438M145.285 12.1759L190.853 57.7438" stroke="white" stroke-width="3"/>
</svg>
